<?xml version="1.0" encoding="UTF-8" standalone="no"?>
<!DOCTYPE svg PUBLIC "-//W3C//DTD SVG 1.1//EN"
 "http://www.w3.org/Graphics/SVG/1.1/DTD/svg11.dtd">
<!-- Generated by graphviz version 12.2.1 (20241206.2353)
 -->
<!-- Title: G Pages: 1 -->
<svg width="323pt" height="490pt"
 viewBox="0.00 0.00 323.31 490.27" xmlns="http://www.w3.org/2000/svg" xmlns:xlink="http://www.w3.org/1999/xlink">
<g id="graph0" class="graph" transform="scale(1 1) rotate(0) translate(4 486.27)">
<title>G</title><style>.edge>path:hover{stroke-width:8}</style>
<polygon fill="white" stroke="none" points="-4,4 -4,-486.27 319.31,-486.27 319.31,4 -4,4"/>
<!-- jaxent_config -->
<g id="node1" class="node">
<title>jaxent_config</title><style>.edge>path:hover{stroke-width:8}</style>
<polygon fill="blue" stroke="black" points="241.75,-118.7 170.25,-118.7 170.25,-82.7 241.75,-82.7 241.75,-118.7"/>
<text text-anchor="middle" x="206" y="-96.83" font-family="Helvetica,sans-Serif" font-size="10.00" fill="white">jaxent.config</text>
</g>
<!-- jaxent_models -->
<g id="node6" class="node">
<title>jaxent_models</title><style>.edge>path:hover{stroke-width:8}</style>
<polygon fill="blue" stroke="black" points="114.38,-194.27 37.62,-194.27 37.62,-158.27 114.38,-158.27 114.38,-194.27"/>
<text text-anchor="middle" x="76" y="-172.39" font-family="Helvetica,sans-Serif" font-size="10.00" fill="white">jaxent.models</text>
</g>
<!-- jaxent_config&#45;&gt;jaxent_models -->
<g id="edge14" class="edge">
<title>jaxent_config&#45;&gt;jaxent_models</title><style>.edge>path:hover{stroke-width:8}</style>
<path fill="none" stroke="black" d="M165.32,-124.72C149.74,-133.54 131.99,-143.58 116.44,-152.38"/>
<polygon fill="blue" stroke="black" points="166.9,-127.85 173.87,-119.88 163.45,-121.76 166.9,-127.85"/>
<polygon fill="blue" stroke="black" points="114.88,-149.24 107.9,-157.21 118.33,-155.33 114.88,-149.24"/>
</g>
<!-- jaxent_types -->
<g id="node8" class="node">
<title>jaxent_types</title><style>.edge>path:hover{stroke-width:8}</style>
<polygon fill="blue" stroke="black" points="230.62,-266.27 161.38,-266.27 161.38,-230.27 230.62,-230.27 230.62,-266.27"/>
<text text-anchor="middle" x="196" y="-244.39" font-family="Helvetica,sans-Serif" font-size="10.00" fill="white">jaxent.types</text>
</g>
<!-- jaxent_config&#45;&gt;jaxent_types -->
<g id="edge17" class="edge">
<title>jaxent_config&#45;&gt;jaxent_types</title><style>.edge>path:hover{stroke-width:8}</style>
<path fill="none" stroke="black" d="M204.04,-130.24C202.28,-155.86 199.71,-193.27 197.95,-218.85"/>
<polygon fill="blue" stroke="black" points="207.52,-130.7 204.71,-120.48 200.53,-130.22 207.52,-130.7"/>
<polygon fill="blue" stroke="black" points="194.48,-218.29 197.29,-228.51 201.47,-218.77 194.48,-218.29"/>
</g>
<!-- jaxent_data -->
<g id="node2" class="node">
<title>jaxent_data</title><style>.edge>path:hover{stroke-width:8}</style>
<polygon fill="blue" stroke="black" points="266,-482.27 202,-482.27 202,-446.27 266,-446.27 266,-482.27"/>
<text text-anchor="middle" x="234" y="-460.39" font-family="Helvetica,sans-Serif" font-size="10.00" fill="white">jaxent.data</text>
</g>
<!-- jaxent_interfaces -->
<g id="node5" class="node">
<title>jaxent_interfaces</title><style>.edge>path:hover{stroke-width:8}</style>
<polygon fill="blue" stroke="black" points="195.38,-410.27 136.62,-410.27 136.62,-374.27 195.38,-374.27 195.38,-410.27"/>
<text text-anchor="middle" x="166" y="-394.02" font-family="Helvetica,sans-Serif" font-size="10.00" fill="white">jaxent.</text>
<text text-anchor="middle" x="166" y="-382.77" font-family="Helvetica,sans-Serif" font-size="10.00" fill="white">interfaces</text>
</g>
<!-- jaxent_data&#45;&gt;jaxent_models -->
<g id="edge15" class="edge">
<title>jaxent_data&#45;&gt;jaxent_models</title><style>.edge>path:hover{stroke-width:8}</style>
<path fill="none" stroke="black" d="M201.9,-452.04C179.51,-443.12 149.86,-429.02 128,-410.27 98.24,-384.73 91.19,-374.82 77,-338.27 59.97,-294.41 64.9,-238.62 70.28,-205.55"/>
<polygon fill="blue" stroke="black" points="73.68,-206.41 71.98,-195.95 66.79,-205.19 73.68,-206.41"/>
</g>
<!-- jaxent_features -->
<g id="node3" class="node">
<title>jaxent_features</title><style>.edge>path:hover{stroke-width:8}</style>
<ellipse fill="#9f5656" stroke="black" cx="76" cy="-100.7" rx="36.24" ry="21.57"/>
<text text-anchor="middle" x="76" y="-102.45" font-family="Helvetica,sans-Serif" font-size="10.00" fill="#ffffff">jaxent.</text>
<text text-anchor="middle" x="76" y="-91.2" font-family="Helvetica,sans-Serif" font-size="10.00" fill="#ffffff">features</text>
</g>
<!-- jaxent_features&#45;&gt;jaxent_models -->
<g id="edge16" class="edge">
<title>jaxent_features&#45;&gt;jaxent_models</title><style>.edge>path:hover{stroke-width:8}</style>
<path fill="none" stroke="black" d="M76,-122.58C76,-130.03 76,-138.56 76,-146.55"/>
<polygon fill="#9f5656" stroke="black" points="72.5,-146.54 76,-156.54 79.5,-146.54 72.5,-146.54"/>
</g>
<!-- jaxent_featurise -->
<g id="node4" class="node">
<title>jaxent_featurise</title><style>.edge>path:hover{stroke-width:8}</style>
<ellipse fill="#924e4e" stroke="black" cx="142" cy="-21.57" rx="37.83" ry="21.57"/>
<text text-anchor="middle" x="142" y="-23.32" font-family="Helvetica,sans-Serif" font-size="10.00" fill="#ffffff">jaxent.</text>
<text text-anchor="middle" x="142" y="-12.07" font-family="Helvetica,sans-Serif" font-size="10.00" fill="#ffffff">featurise</text>
</g>
<!-- jaxent_featurise&#45;&gt;jaxent_config -->
<g id="edge1" class="edge">
<title>jaxent_featurise&#45;&gt;jaxent_config</title><style>.edge>path:hover{stroke-width:8}</style>
<path fill="none" stroke="black" d="M157.82,-41.63C165.84,-51.29 175.69,-63.17 184.39,-73.66"/>
<polygon fill="#924e4e" stroke="black" points="181.63,-75.81 190.71,-81.27 187.01,-71.34 181.63,-75.81"/>
</g>
<!-- jaxent_featurise&#45;&gt;jaxent_interfaces -->
<g id="edge9" class="edge">
<title>jaxent_featurise&#45;&gt;jaxent_interfaces</title><style>.edge>path:hover{stroke-width:8}</style>
<path fill="none" stroke="black" d="M108.45,-31.96C83.8,-40.49 51.2,-55.43 31,-79.13 1.88,-113.3 0,-130.37 0,-175.27 0,-175.27 0,-175.27 0,-249.27 0,-315.2 76.56,-357.07 125.69,-377.15"/>
<polygon fill="#924e4e" stroke="black" points="124.33,-380.38 134.91,-380.78 126.89,-373.86 124.33,-380.38"/>
</g>
<!-- jaxent_featurise&#45;&gt;jaxent_types -->
<g id="edge19" class="edge">
<title>jaxent_featurise&#45;&gt;jaxent_types</title><style>.edge>path:hover{stroke-width:8}</style>
<path fill="none" stroke="black" d="M145.42,-43.3C148.89,-63.54 154.64,-95.16 161,-122.27 168.87,-155.79 179.82,-193.83 187.36,-219.05"/>
<polygon fill="#924e4e" stroke="black" points="183.99,-219.98 190.23,-228.55 190.69,-217.96 183.99,-219.98"/>
</g>
<!-- jaxent_interfaces&#45;&gt;jaxent_data -->
<g id="edge5" class="edge">
<title>jaxent_interfaces&#45;&gt;jaxent_data</title><style>.edge>path:hover{stroke-width:8}</style>
<path fill="none" stroke="black" d="M190.64,-418.63C196.75,-424.92 203.3,-431.66 209.41,-437.95"/>
<polygon fill="blue" stroke="black" points="193.34,-416.39 183.86,-411.66 188.32,-421.27 193.34,-416.39"/>
<polygon fill="blue" stroke="black" points="206.85,-440.34 216.33,-445.08 211.87,-435.47 206.85,-440.34"/>
</g>
<!-- jaxent_models&#45;&gt;jaxent_interfaces -->
<g id="edge10" class="edge">
<title>jaxent_models&#45;&gt;jaxent_interfaces</title><style>.edge>path:hover{stroke-width:8}</style>
<path fill="none" stroke="black" d="M73.81,-194.62C70.75,-225.7 68.27,-291.95 95,-338.27 102.52,-351.3 114.67,-362.11 126.8,-370.5"/>
<polygon fill="blue" stroke="black" points="124.87,-373.42 135.17,-375.88 128.65,-367.53 124.87,-373.42"/>
</g>
<!-- jaxent_models&#45;&gt;jaxent_types -->
<g id="edge21" class="edge">
<title>jaxent_models&#45;&gt;jaxent_types</title><style>.edge>path:hover{stroke-width:8}</style>
<path fill="none" stroke="black" d="M105.97,-194.75C121.26,-203.67 140.06,-214.64 156.52,-224.24"/>
<polygon fill="blue" stroke="black" points="154.7,-227.23 165.1,-229.24 158.23,-221.18 154.7,-227.23"/>
</g>
<!-- jaxent_optimise -->
<g id="node7" class="node">
<title>jaxent_optimise</title><style>.edge>path:hover{stroke-width:8}</style>
<ellipse fill="#8f3d3d" stroke="black" cx="272" cy="-21.57" rx="37.3" ry="21.57"/>
<text text-anchor="middle" x="272" y="-23.32" font-family="Helvetica,sans-Serif" font-size="10.00" fill="#ffffff">jaxent.</text>
<text text-anchor="middle" x="272" y="-12.07" font-family="Helvetica,sans-Serif" font-size="10.00" fill="#ffffff">optimise</text>
</g>
<!-- jaxent_optimise&#45;&gt;jaxent_config -->
<g id="edge3" class="edge">
<title>jaxent_optimise&#45;&gt;jaxent_config</title><style>.edge>path:hover{stroke-width:8}</style>
<path fill="none" stroke="black" d="M256.02,-41.24C247.68,-50.99 237.33,-63.08 228.22,-73.73"/>
<polygon fill="#8f3d3d" stroke="black" points="225.75,-71.23 221.91,-81.11 231.07,-75.79 225.75,-71.23"/>
</g>
<!-- jaxent_optimise&#45;&gt;jaxent_data -->
<g id="edge6" class="edge">
<title>jaxent_optimise&#45;&gt;jaxent_data</title><style>.edge>path:hover{stroke-width:8}</style>
<path fill="none" stroke="black" d="M310,-249.27C299.38,-318.92 266.55,-395.6 247.7,-435.57"/>
<polygon fill="#8f3d3d" stroke="black" points="244.6,-433.93 243.44,-444.46 250.91,-436.96 244.6,-433.93"/>
</g>
<!-- jaxent_optimise&#45;&gt;jaxent_interfaces -->
<g id="edge11" class="edge">
<title>jaxent_optimise&#45;&gt;jaxent_interfaces</title><style>.edge>path:hover{stroke-width:8}</style>
<path fill="none" stroke="black" d="M310,-249.27C296.44,-304.02 243.19,-345.97 205.41,-369.63"/>
<polygon fill="#8f3d3d" stroke="black" points="203.72,-366.56 196.98,-374.74 207.35,-372.55 203.72,-366.56"/>
<path fill="none" stroke="black" d="M310,-177.27C300.17,-206.78 314.69,-216.51 310,-247.27"/>
</g>
<!-- jaxent_optimise&#45;&gt;jaxent_types -->
<g id="edge22" class="edge">
<title>jaxent_optimise&#45;&gt;jaxent_types</title><style>.edge>path:hover{stroke-width:8}</style>
<path fill="none" stroke="black" d="M310,-177.27C299.69,-206.9 268.53,-224.75 241.38,-235"/>
<polygon fill="#8f3d3d" stroke="black" points="240.55,-231.58 232.27,-238.19 242.87,-238.19 240.55,-231.58"/>
<path fill="none" stroke="black" d="M284.06,-42.18C300.52,-71.57 326.25,-128.57 310,-175.27"/>
</g>
<!-- jaxent_types&#45;&gt;jaxent_data -->
<g id="edge7" class="edge">
<title>jaxent_types&#45;&gt;jaxent_data</title><style>.edge>path:hover{stroke-width:8}</style>
<path fill="none" stroke="black" d="M201.05,-277.7C208.32,-318.63 221.65,-393.73 228.93,-434.72"/>
<polygon fill="blue" stroke="black" points="204.5,-277.14 199.31,-267.91 197.61,-278.37 204.5,-277.14"/>
<polygon fill="blue" stroke="black" points="225.48,-435.31 230.68,-444.54 232.37,-434.09 225.48,-435.31"/>
</g>
<!-- jaxent_types&#45;&gt;jaxent_interfaces -->
<g id="edge12" class="edge">
<title>jaxent_types&#45;&gt;jaxent_interfaces</title><style>.edge>path:hover{stroke-width:8}</style>
<path fill="none" stroke="black" d="M190,-277.66C184.76,-302.45 177.2,-338.23 171.97,-362.99"/>
<polygon fill="blue" stroke="black" points="193.37,-278.67 192.01,-268.16 186.52,-277.22 193.37,-278.67"/>
<polygon fill="blue" stroke="black" points="168.57,-362.17 169.93,-372.68 175.42,-363.61 168.57,-362.17"/>
</g>
<!-- jaxent_utils -->
<g id="node9" class="node">
<title>jaxent_utils</title><style>.edge>path:hover{stroke-width:8}</style>
<polygon fill="blue" stroke="black" points="167.62,-338.27 104.38,-338.27 104.38,-302.27 167.62,-302.27 167.62,-338.27"/>
<text text-anchor="middle" x="136" y="-316.39" font-family="Helvetica,sans-Serif" font-size="10.00" fill="white">jaxent.utils</text>
</g>
<!-- jaxent_types&#45;&gt;jaxent_utils -->
<g id="edge24" class="edge">
<title>jaxent_types&#45;&gt;jaxent_utils</title><style>.edge>path:hover{stroke-width:8}</style>
<path fill="none" stroke="black" d="M173.78,-275.19C168.6,-281.24 163.08,-287.67 157.91,-293.71"/>
<polygon fill="blue" stroke="black" points="176.33,-277.59 180.18,-267.72 171.02,-273.03 176.33,-277.59"/>
<polygon fill="blue" stroke="black" points="155.5,-291.14 151.65,-301.01 160.81,-295.7 155.5,-291.14"/>
</g>
<!-- jaxent_utils&#45;&gt;jaxent_interfaces -->
<g id="edge13" class="edge">
<title>jaxent_utils&#45;&gt;jaxent_interfaces</title><style>.edge>path:hover{stroke-width:8}</style>
<path fill="none" stroke="black" d="M143.42,-338.57C146.65,-346.11 150.52,-355.15 154.14,-363.59"/>
<polygon fill="blue" stroke="black" points="150.92,-364.96 158.07,-372.77 157.35,-362.2 150.92,-364.96"/>
</g>
</g>
</svg>
