<?xml version="1.0" encoding="UTF-8" standalone="no"?>
<!DOCTYPE svg PUBLIC "-//W3C//DTD SVG 1.1//EN"
 "http://www.w3.org/Graphics/SVG/1.1/DTD/svg11.dtd">
<!-- Generated by graphviz version 12.2.1 (20241206.2353)
 -->
<!-- Title: G Pages: 1 -->
<svg width="715pt" height="258pt"
 viewBox="0.00 0.00 715.21 257.87" xmlns="http://www.w3.org/2000/svg" xmlns:xlink="http://www.w3.org/1999/xlink">
<g id="graph0" class="graph" transform="scale(1 1) rotate(0) translate(4 253.87)">
<title>G</title><style>.edge>path:hover{stroke-width:8}</style>
<polygon fill="white" stroke="none" points="-4,4 -4,-253.87 711.21,-253.87 711.21,4 -4,4"/>
<!-- jaxent_config -->
<g id="node1" class="node">
<title>jaxent_config</title><style>.edge>path:hover{stroke-width:8}</style>
<ellipse fill="#9f5656" stroke="black" cx="554.31" cy="-105.27" rx="42.31" ry="18"/>
<text text-anchor="middle" x="554.31" y="-101.4" font-family="Helvetica,sans-Serif" font-size="10.00" fill="#ffffff">jaxent.config</text>
</g>
<!-- jaxent_types -->
<g id="node8" class="node">
<title>jaxent_types</title><style>.edge>path:hover{stroke-width:8}</style>
<polygon fill="blue" stroke="black" points="476,-128.27 406.75,-128.27 406.75,-92.27 476,-92.27 476,-128.27"/>
<text text-anchor="middle" x="441.38" y="-106.4" font-family="Helvetica,sans-Serif" font-size="10.00" fill="white">jaxent.types</text>
</g>
<!-- jaxent_config&#45;&gt;jaxent_types -->
<g id="edge19" class="edge">
<title>jaxent_config&#45;&gt;jaxent_types</title><style>.edge>path:hover{stroke-width:8}</style>
<path fill="none" stroke="black" d="M512,-107.14C504.14,-107.49 495.87,-107.86 487.88,-108.22"/>
<polygon fill="#9f5656" stroke="black" points="487.81,-104.72 477.98,-108.67 488.12,-111.72 487.81,-104.72"/>
</g>
<!-- jaxent_data -->
<g id="node2" class="node">
<title>jaxent_data</title><style>.edge>path:hover{stroke-width:8}</style>
<polygon fill="blue" stroke="black" points="370.75,-218.27 306.75,-218.27 306.75,-182.27 370.75,-182.27 370.75,-218.27"/>
<text text-anchor="middle" x="338.75" y="-196.4" font-family="Helvetica,sans-Serif" font-size="10.00" fill="white">jaxent.data</text>
</g>
<!-- jaxent_interfaces -->
<g id="node4" class="node">
<title>jaxent_interfaces</title><style>.edge>path:hover{stroke-width:8}</style>
<polygon fill="blue" stroke="black" points="270.75,-88.27 212,-88.27 212,-52.27 270.75,-52.27 270.75,-88.27"/>
<text text-anchor="middle" x="241.38" y="-72.02" font-family="Helvetica,sans-Serif" font-size="10.00" fill="white">jaxent.</text>
<text text-anchor="middle" x="241.38" y="-60.77" font-family="Helvetica,sans-Serif" font-size="10.00" fill="white">interfaces</text>
</g>
<!-- jaxent_data&#45;&gt;jaxent_interfaces -->
<g id="edge6" class="edge">
<title>jaxent_data&#45;&gt;jaxent_interfaces</title><style>.edge>path:hover{stroke-width:8}</style>
<path fill="none" stroke="black" d="M311.08,-173.45C309.58,-171.73 308.13,-169.99 306.75,-168.27 288.87,-145.95 271.22,-118.61 258.94,-98.48"/>
<polygon fill="blue" stroke="black" points="308.42,-175.73 317.75,-180.75 313.59,-171.01 308.42,-175.73"/>
<polygon fill="blue" stroke="black" points="261.98,-96.74 253.82,-89.98 255.98,-100.35 261.98,-96.74"/>
</g>
<!-- jaxent_models -->
<g id="node5" class="node">
<title>jaxent_models</title><style>.edge>path:hover{stroke-width:8}</style>
<polygon fill="blue" stroke="black" points="176,-134.27 99.25,-134.27 99.25,-98.27 176,-98.27 176,-134.27"/>
<text text-anchor="middle" x="137.62" y="-112.4" font-family="Helvetica,sans-Serif" font-size="10.00" fill="white">jaxent.models</text>
</g>
<!-- jaxent_data&#45;&gt;jaxent_models -->
<g id="edge13" class="edge">
<title>jaxent_data&#45;&gt;jaxent_models</title><style>.edge>path:hover{stroke-width:8}</style>
<path fill="none" stroke="black" d="M296.18,-182.74C264.28,-169.28 220.19,-150.68 186.76,-136.58"/>
<polygon fill="blue" stroke="black" points="294.67,-185.9 305.24,-186.56 297.39,-179.45 294.67,-185.9"/>
<polygon fill="blue" stroke="black" points="188.28,-133.42 177.71,-132.76 185.56,-139.87 188.28,-133.42"/>
</g>
<!-- jaxent_featurise -->
<g id="node3" class="node">
<title>jaxent_featurise</title><style>.edge>path:hover{stroke-width:8}</style>
<ellipse fill="#995252" stroke="black" cx="554.31" cy="-42.27" rx="37.83" ry="21.57"/>
<text text-anchor="middle" x="554.31" y="-44.02" font-family="Helvetica,sans-Serif" font-size="10.00" fill="#ffffff">jaxent.</text>
<text text-anchor="middle" x="554.31" y="-32.77" font-family="Helvetica,sans-Serif" font-size="10.00" fill="#ffffff">featurise</text>
</g>
<!-- jaxent_featurise&#45;&gt;jaxent_interfaces -->
<g id="edge7" class="edge">
<title>jaxent_featurise&#45;&gt;jaxent_interfaces</title><style>.edge>path:hover{stroke-width:8}</style>
<path fill="none" stroke="black" d="M516.49,-39.43C494.86,-38.31 467,-37.79 442.38,-40.27"/>
</g>
<!-- jaxent_featurise&#45;&gt;jaxent_types -->
<g id="edge21" class="edge">
<title>jaxent_featurise&#45;&gt;jaxent_types</title><style>.edge>path:hover{stroke-width:8}</style>
<path fill="none" stroke="black" d="M527.58,-58.05C514.03,-66.35 497.13,-76.71 481.95,-86.01"/>
<polygon fill="#995252" stroke="black" points="480.27,-82.94 473.58,-91.15 483.93,-88.91 480.27,-82.94"/>
</g>
<!-- jaxent_interfaces&#45;&gt;jaxent_models -->
<g id="edge14" class="edge">
<title>jaxent_interfaces&#45;&gt;jaxent_models</title><style>.edge>path:hover{stroke-width:8}</style>
<path fill="none" stroke="black" d="M201.53,-87.84C196.59,-90.07 191.48,-92.38 186.42,-94.67"/>
<polygon fill="blue" stroke="black" points="202.71,-91.14 210.38,-83.83 199.83,-84.76 202.71,-91.14"/>
<polygon fill="blue" stroke="black" points="185.19,-91.38 177.52,-98.69 188.08,-97.76 185.19,-91.38"/>
</g>
<!-- jaxent_utils -->
<g id="node9" class="node">
<title>jaxent_utils</title><style>.edge>path:hover{stroke-width:8}</style>
<polygon fill="blue" stroke="black" points="63.25,-77.27 0,-77.27 0,-41.27 63.25,-41.27 63.25,-77.27"/>
<text text-anchor="middle" x="31.62" y="-55.4" font-family="Helvetica,sans-Serif" font-size="10.00" fill="white">jaxent.utils</text>
</g>
<!-- jaxent_models&#45;&gt;jaxent_utils -->
<g id="edge27" class="edge">
<title>jaxent_models&#45;&gt;jaxent_utils</title><style>.edge>path:hover{stroke-width:8}</style>
<path fill="none" stroke="black" d="M103.15,-97.93C93.72,-92.76 83.35,-87.07 73.54,-81.7"/>
<polygon fill="blue" stroke="black" points="75.35,-78.7 64.9,-76.96 71.99,-84.84 75.35,-78.7"/>
</g>
<!-- jaxent_opt -->
<g id="node6" class="node">
<title>jaxent_opt</title><style>.edge>path:hover{stroke-width:8}</style>
<ellipse fill="#993333" stroke="black" cx="554.31" cy="-197.27" rx="34.76" ry="18"/>
<text text-anchor="middle" x="554.31" y="-193.4" font-family="Helvetica,sans-Serif" font-size="10.00" fill="#ffffff">jaxent.opt</text>
</g>
<!-- jaxent_opt&#45;&gt;jaxent_data -->
<g id="edge3" class="edge">
<title>jaxent_opt&#45;&gt;jaxent_data</title><style>.edge>path:hover{stroke-width:8}</style>
<path fill="none" stroke="black" d="M440.38,-200.27C421.32,-200.53 400.23,-200.56 382.3,-200.52"/>
<polygon fill="#993333" stroke="black" points="382.55,-197.03 372.54,-200.49 382.53,-204.03 382.55,-197.03"/>
</g>
<!-- jaxent_opt&#45;&gt;jaxent_interfaces -->
<g id="edge9" class="edge">
<title>jaxent_opt&#45;&gt;jaxent_interfaces</title><style>.edge>path:hover{stroke-width:8}</style>
<path fill="none" stroke="black" d="M440.38,-200.27C402.69,-200.77 317.48,-133.92 272.11,-95.9"/>
<polygon fill="#993333" stroke="black" points="274.64,-93.47 264.75,-89.69 270.13,-98.82 274.64,-93.47"/>
<path fill="none" stroke="black" d="M519.33,-198.6C497.37,-199.36 468.19,-200.18 442.38,-200.27"/>
</g>
<!-- jaxent_opt&#45;&gt;jaxent_models -->
<g id="edge15" class="edge">
<title>jaxent_opt&#45;&gt;jaxent_models</title><style>.edge>path:hover{stroke-width:8}</style>
<path fill="none" stroke="black" d="M337.75,-246.27C262.37,-254.62 192.64,-184.05 159.27,-143.53"/>
<polygon fill="#993333" stroke="black" points="162.08,-141.44 153.09,-135.83 156.62,-145.82 162.08,-141.44"/>
<path fill="none" stroke="black" d="M440.38,-200.27C391.2,-200.46 388.87,-248.5 339.75,-246.27"/>
</g>
<!-- jaxent_opt&#45;&gt;jaxent_types -->
<g id="edge24" class="edge">
<title>jaxent_opt&#45;&gt;jaxent_types</title><style>.edge>path:hover{stroke-width:8}</style>
<path fill="none" stroke="black" d="M533.94,-182.33C527.01,-176.97 519.14,-170.86 512,-165.27 499.75,-155.69 486.32,-145.1 474.56,-135.8"/>
<polygon fill="#993333" stroke="black" points="476.74,-133.06 466.73,-129.6 472.4,-138.55 476.74,-133.06"/>
</g>
<!-- jaxent_optimise -->
<g id="node7" class="node">
<title>jaxent_optimise</title><style>.edge>path:hover{stroke-width:8}</style>
<ellipse fill="#854747" stroke="black" cx="669.91" cy="-174.27" rx="37.3" ry="21.57"/>
<text text-anchor="middle" x="669.91" y="-176.02" font-family="Helvetica,sans-Serif" font-size="10.00" fill="#ffffff">jaxent.</text>
<text text-anchor="middle" x="669.91" y="-164.77" font-family="Helvetica,sans-Serif" font-size="10.00" fill="#ffffff">optimise</text>
</g>
<!-- jaxent_optimise&#45;&gt;jaxent_data -->
<g id="edge4" class="edge">
<title>jaxent_optimise&#45;&gt;jaxent_data</title><style>.edge>path:hover{stroke-width:8}</style>
<path fill="none" stroke="black" d="M648.58,-192.19C634.85,-203.27 615.8,-216.76 596.61,-224.27 532.14,-249.53 511.2,-253.89 442.38,-246.27"/>
<path fill="none" stroke="black" d="M440.38,-246.27C417.57,-244.75 394.23,-234.71 375.78,-224.39"/>
<polygon fill="#854747" stroke="black" points="377.76,-221.5 367.37,-219.45 374.22,-227.54 377.76,-221.5"/>
</g>
<!-- jaxent_optimise&#45;&gt;jaxent_interfaces -->
<g id="edge10" class="edge">
<title>jaxent_optimise&#45;&gt;jaxent_interfaces</title><style>.edge>path:hover{stroke-width:8}</style>
<path fill="none" stroke="black" d="M440.38,-40.27C385.28,-45.83 322.09,-56.08 282.22,-63.04"/>
<polygon fill="#854747" stroke="black" points="281.85,-59.55 272.61,-64.73 283.06,-66.45 281.85,-59.55"/>
<path fill="none" stroke="black" d="M666.6,-152.31C661.44,-115.65 645.27,-42.92 596.61,-11.27 565.09,9.23 548.88,-3.9 512,-11.27 479.13,-17.85 475.43,-34.72 442.38,-40.27"/>
</g>
<!-- jaxent_optimise&#45;&gt;jaxent_models -->
<g id="edge16" class="edge">
<title>jaxent_optimise&#45;&gt;jaxent_models</title><style>.edge>path:hover{stroke-width:8}</style>
<path fill="none" stroke="black" d="M440.38,-246.27C395.75,-243.29 384.43,-248.3 339.75,-246.27"/>
</g>
<!-- jaxent_optimise&#45;&gt;jaxent_opt -->
<g id="edge18" class="edge">
<title>jaxent_optimise&#45;&gt;jaxent_opt</title><style>.edge>path:hover{stroke-width:8}</style>
<path fill="none" stroke="black" d="M634.21,-181.3C622.84,-183.6 610.06,-186.19 598.16,-188.6"/>
<polygon fill="#854747" stroke="black" points="597.68,-185.12 588.57,-190.54 599.07,-191.99 597.68,-185.12"/>
</g>
<!-- jaxent_optimise&#45;&gt;jaxent_types -->
<g id="edge25" class="edge">
<title>jaxent_optimise&#45;&gt;jaxent_types</title><style>.edge>path:hover{stroke-width:8}</style>
<path fill="none" stroke="black" d="M635.12,-165.69C603.26,-157.49 554.23,-144.59 512,-132.27 503.97,-129.93 495.45,-127.33 487.23,-124.77"/>
<polygon fill="#854747" stroke="black" points="488.31,-121.44 477.72,-121.77 486.21,-128.12 488.31,-121.44"/>
</g>
<!-- jaxent_types&#45;&gt;jaxent_data -->
<g id="edge5" class="edge">
<title>jaxent_types&#45;&gt;jaxent_data</title><style>.edge>path:hover{stroke-width:8}</style>
<path fill="none" stroke="black" d="M411.84,-135.79C398.41,-147.81 382.41,-162.12 368.9,-174.21"/>
<polygon fill="blue" stroke="black" points="413.76,-138.77 418.88,-129.5 409.1,-133.55 413.76,-138.77"/>
<polygon fill="blue" stroke="black" points="366.68,-171.5 361.56,-180.77 371.34,-176.71 366.68,-171.5"/>
</g>
<!-- jaxent_types&#45;&gt;jaxent_interfaces -->
<g id="edge11" class="edge">
<title>jaxent_types&#45;&gt;jaxent_interfaces</title><style>.edge>path:hover{stroke-width:8}</style>
<path fill="none" stroke="black" d="M395.53,-101.22C361.42,-94.32 314.92,-84.93 282.13,-78.31"/>
<polygon fill="blue" stroke="black" points="394.36,-104.55 404.85,-103.1 395.75,-97.69 394.36,-104.55"/>
<polygon fill="blue" stroke="black" points="283.13,-74.94 272.64,-76.39 281.74,-81.8 283.13,-74.94"/>
</g>
<!-- jaxent_types&#45;&gt;jaxent_models -->
<g id="edge17" class="edge">
<title>jaxent_types&#45;&gt;jaxent_models</title><style>.edge>path:hover{stroke-width:8}</style>
<path fill="none" stroke="black" d="M395.04,-111.18C339.28,-112.28 244.99,-114.16 187.61,-115.3"/>
<polygon fill="blue" stroke="black" points="394.91,-114.68 404.83,-110.98 394.77,-107.68 394.91,-114.68"/>
<polygon fill="blue" stroke="black" points="187.74,-111.8 177.82,-115.49 187.88,-118.8 187.74,-111.8"/>
</g>
<!-- jaxent_utils&#45;&gt;jaxent_interfaces -->
<g id="edge12" class="edge">
<title>jaxent_utils&#45;&gt;jaxent_interfaces</title><style>.edge>path:hover{stroke-width:8}</style>
<path fill="none" stroke="black" d="M138.62,-2.27C175.03,0.95 208.45,-30.85 226.46,-52.07"/>
</g>
<!-- jaxent_utils&#45;&gt;jaxent_types -->
<g id="edge26" class="edge">
<title>jaxent_utils&#45;&gt;jaxent_types</title><style>.edge>path:hover{stroke-width:8}</style>
<path fill="none" stroke="black" d="M138.62,-2.27C245.32,7.18 362.17,-58.65 413.58,-91.89"/>
<path fill="none" stroke="black" d="M53.57,-40.97C71.09,-27.22 97.63,-9.78 125.48,-3.95"/>
<polygon fill="blue" stroke="black" points="125.76,-7.45 135.13,-2.5 124.72,-0.52 125.76,-7.45"/>
</g>
</g>
</svg>
