<?xml version="1.0" encoding="UTF-8" standalone="no"?>
<!DOCTYPE svg PUBLIC "-//W3C//DTD SVG 1.1//EN"
 "http://www.w3.org/Graphics/SVG/1.1/DTD/svg11.dtd">
<!-- Generated by graphviz version 2.43.0 (0)
 -->
<!-- Title: G Pages: 1 -->
<svg width="1123pt" height="440pt"
 viewBox="0.00 0.00 1122.72 439.84" xmlns="http://www.w3.org/2000/svg" xmlns:xlink="http://www.w3.org/1999/xlink">
<g id="graph0" class="graph" transform="scale(1 1) rotate(0) translate(4 435.84)">
<title>G</title><style>.edge>path:hover{stroke-width:8}</style>
<polygon fill="white" stroke="transparent" points="-4,4 -4,-435.84 1118.72,-435.84 1118.72,4 -4,4"/>
<!-- jaxent_config -->
<g id="node1" class="node">
<title>jaxent_config</title><style>.edge>path:hover{stroke-width:8}</style>
<ellipse fill="#e72222" stroke="black" cx="477.33" cy="-281.78" rx="46.51" ry="18"/>
<text text-anchor="middle" x="477.33" y="-279.28" font-family="Helvetica,sans-Serif" font-size="10.00" fill="#ffffff">jaxent.config</text>
</g>
<!-- jaxent_config_base -->
<g id="node2" class="node">
<title>jaxent_config_base</title><style>.edge>path:hover{stroke-width:8}</style>
<ellipse fill="#e72222" stroke="black" cx="353.03" cy="-327.78" rx="35.21" ry="28.98"/>
<text text-anchor="middle" x="353.03" y="-336.28" font-family="Helvetica,sans-Serif" font-size="10.00" fill="#ffffff">jaxent.</text>
<text text-anchor="middle" x="353.03" y="-325.28" font-family="Helvetica,sans-Serif" font-size="10.00" fill="#ffffff">config.</text>
<text text-anchor="middle" x="353.03" y="-314.28" font-family="Helvetica,sans-Serif" font-size="10.00" fill="#ffffff">base</text>
</g>
<!-- jaxent_datatypes -->
<g id="node3" class="node">
<title>jaxent_datatypes</title><style>.edge>path:hover{stroke-width:8}</style>
<ellipse fill="#cc0a0a" stroke="black" cx="477.33" cy="-121.78" rx="45.92" ry="21.43"/>
<text text-anchor="middle" x="477.33" y="-124.78" font-family="Helvetica,sans-Serif" font-size="10.00" fill="#ffffff">jaxent.</text>
<text text-anchor="middle" x="477.33" y="-113.78" font-family="Helvetica,sans-Serif" font-size="10.00" fill="#ffffff">datatypes</text>
</g>
<!-- jaxent_forwardmodels -->
<g id="node5" class="node">
<title>jaxent_forwardmodels</title><style>.edge>path:hover{stroke-width:8}</style>
<ellipse fill="#f91010" stroke="black" cx="65.76" cy="-30.78" rx="63.78" ry="21.43"/>
<text text-anchor="middle" x="65.76" y="-33.78" font-family="Helvetica,sans-Serif" font-size="10.00" fill="#ffffff">jaxent.</text>
<text text-anchor="middle" x="65.76" y="-22.78" font-family="Helvetica,sans-Serif" font-size="10.00" fill="#ffffff">forwardmodels</text>
</g>
<!-- jaxent_datatypes&#45;&gt;jaxent_forwardmodels -->
<g id="edge14" class="edge">
<title>jaxent_datatypes&#45;&gt;jaxent_forwardmodels</title><style>.edge>path:hover{stroke-width:8}</style>
<path fill="none" stroke="black" d="M433.39,-115.24C399.12,-108.94 350.52,-97.54 311.23,-78.78 276.15,-62.02 279.28,-32.9 240.88,-26.78"/>
</g>
<!-- jaxent_forwardmodels_base -->
<g id="node6" class="node">
<title>jaxent_forwardmodels_base</title><style>.edge>path:hover{stroke-width:8}</style>
<ellipse fill="#f91010" stroke="black" cx="65.76" cy="-102.78" rx="65.52" ry="28.98"/>
<text text-anchor="middle" x="65.76" y="-111.28" font-family="Helvetica,sans-Serif" font-size="10.00" fill="#ffffff">jaxent.</text>
<text text-anchor="middle" x="65.76" y="-100.28" font-family="Helvetica,sans-Serif" font-size="10.00" fill="#ffffff">forwardmodels.</text>
<text text-anchor="middle" x="65.76" y="-89.28" font-family="Helvetica,sans-Serif" font-size="10.00" fill="#ffffff">base</text>
</g>
<!-- jaxent_datatypes&#45;&gt;jaxent_forwardmodels_base -->
<g id="edge19" class="edge">
<title>jaxent_datatypes&#45;&gt;jaxent_forwardmodels_base</title><style>.edge>path:hover{stroke-width:8}</style>
<path fill="none" stroke="black" d="M352.03,-232.78C302.93,-250.52 292.6,-277.88 240.88,-270.78"/>
<path fill="none" stroke="black" d="M238.88,-270.78C166.74,-260.87 113.02,-186.51 86.1,-140.1"/>
<polygon fill="#cc0a0a" stroke="black" points="89.04,-138.2 81.07,-131.22 82.95,-141.65 89.04,-138.2"/>
</g>
<!-- jaxent_utils -->
<g id="node13" class="node">
<title>jaxent_utils</title><style>.edge>path:hover{stroke-width:8}</style>
<ellipse fill="#c24747" stroke="black" cx="353.03" cy="-148.78" rx="41.59" ry="18"/>
<text text-anchor="middle" x="353.03" y="-146.28" font-family="Helvetica,sans-Serif" font-size="10.00" fill="#ffffff">jaxent.utils</text>
</g>
<!-- jaxent_datatypes&#45;&gt;jaxent_utils -->
<g id="edge30" class="edge">
<title>jaxent_datatypes&#45;&gt;jaxent_utils</title><style>.edge>path:hover{stroke-width:8}</style>
<path fill="none" stroke="black" d="M435.6,-130.77C424.32,-133.26 411.98,-135.98 400.4,-138.54"/>
<polygon fill="#cc0a0a" stroke="black" points="399.47,-135.16 390.46,-140.73 400.98,-142 399.47,-135.16"/>
</g>
<!-- jaxent_utils_jax -->
<g id="node14" class="node">
<title>jaxent_utils_jax</title><style>.edge>path:hover{stroke-width:8}</style>
<ellipse fill="#b03a3a" stroke="black" cx="239.88" cy="-186.78" rx="35.21" ry="28.98"/>
<text text-anchor="middle" x="239.88" y="-195.28" font-family="Helvetica,sans-Serif" font-size="10.00" fill="#ffffff">jaxent.</text>
<text text-anchor="middle" x="239.88" y="-184.28" font-family="Helvetica,sans-Serif" font-size="10.00" fill="#ffffff">utils.</text>
<text text-anchor="middle" x="239.88" y="-173.28" font-family="Helvetica,sans-Serif" font-size="10.00" fill="#ffffff">jax</text>
</g>
<!-- jaxent_datatypes&#45;&gt;jaxent_utils_jax -->
<g id="edge31" class="edge">
<title>jaxent_datatypes&#45;&gt;jaxent_utils_jax</title><style>.edge>path:hover{stroke-width:8}</style>
<path fill="none" stroke="black" d="M462.21,-142.04C441.95,-169.07 401.76,-215.53 354.03,-232.78"/>
<path fill="none" stroke="black" d="M352.03,-232.78C325.15,-242.49 295.25,-228.68 273.24,-213.71"/>
<polygon fill="#cc0a0a" stroke="black" points="275.08,-210.73 264.91,-207.75 271,-216.42 275.08,-210.73"/>
</g>
<!-- jaxent_featurise -->
<g id="node4" class="node">
<title>jaxent_featurise</title><style>.edge>path:hover{stroke-width:8}</style>
<ellipse fill="#8f3d3d" stroke="black" cx="602.26" cy="-186.78" rx="42.35" ry="21.43"/>
<text text-anchor="middle" x="602.26" y="-189.78" font-family="Helvetica,sans-Serif" font-size="10.00" fill="#ffffff">jaxent.</text>
<text text-anchor="middle" x="602.26" y="-178.78" font-family="Helvetica,sans-Serif" font-size="10.00" fill="#ffffff">featurise</text>
</g>
<!-- jaxent_featurise&#45;&gt;jaxent_config -->
<g id="edge1" class="edge">
<title>jaxent_featurise&#45;&gt;jaxent_config</title><style>.edge>path:hover{stroke-width:8}</style>
<path fill="none" stroke="black" d="M578.42,-204.42C558.23,-220.03 528.68,-242.87 506.92,-259.68"/>
<polygon fill="#8f3d3d" stroke="black" points="504.77,-256.92 498.99,-265.81 509.05,-262.46 504.77,-256.92"/>
</g>
<!-- jaxent_featurise&#45;&gt;jaxent_config_base -->
<g id="edge5" class="edge">
<title>jaxent_featurise&#45;&gt;jaxent_config_base</title><style>.edge>path:hover{stroke-width:8}</style>
<path fill="none" stroke="black" d="M476.33,-197.78C425.56,-212.93 431.17,-246.22 394.82,-284.78 390.94,-288.89 386.84,-293.23 382.8,-297.49"/>
<polygon fill="#8f3d3d" stroke="black" points="379.99,-295.37 375.65,-305.04 385.07,-300.19 379.99,-295.37"/>
</g>
<!-- jaxent_featurise&#45;&gt;jaxent_datatypes -->
<g id="edge9" class="edge">
<title>jaxent_featurise&#45;&gt;jaxent_datatypes</title><style>.edge>path:hover{stroke-width:8}</style>
<path fill="none" stroke="black" d="M572.44,-171.54C556,-162.85 535.17,-151.83 517.29,-142.38"/>
<polygon fill="#8f3d3d" stroke="black" points="518.73,-139.18 508.25,-137.6 515.46,-145.37 518.73,-139.18"/>
</g>
<!-- jaxent_featurise&#45;&gt;jaxent_forwardmodels -->
<g id="edge15" class="edge">
<title>jaxent_featurise&#45;&gt;jaxent_forwardmodels</title><style>.edge>path:hover{stroke-width:8}</style>
<path fill="none" stroke="black" d="M559.79,-186.38C535.58,-187.16 504.71,-189.9 478.33,-197.78"/>
<path fill="none" stroke="black" d="M476.33,-197.78C405.4,-218.95 377.24,-209.28 311.23,-175.78 229.47,-134.27 257.93,-47.12 168.52,-26.78"/>
</g>
<!-- jaxent_featurise&#45;&gt;jaxent_forwardmodels_base -->
<g id="edge20" class="edge">
<title>jaxent_featurise&#45;&gt;jaxent_forwardmodels_base</title><style>.edge>path:hover{stroke-width:8}</style>
<path fill="none" stroke="black" d="M476.33,-197.78C435.83,-209.87 430.42,-223.99 394.82,-246.78 377.11,-258.12 375.02,-269.35 354.03,-270.78"/>
<path fill="none" stroke="black" d="M352.03,-270.78C302.74,-274.13 287.35,-287.53 240.88,-270.78"/>
</g>
<!-- jaxent_forwardmodels_functions -->
<g id="node7" class="node">
<title>jaxent_forwardmodels_functions</title><style>.edge>path:hover{stroke-width:8}</style>
<ellipse fill="#b83d3d" stroke="black" cx="754.22" cy="-178.78" rx="65.52" ry="28.98"/>
<text text-anchor="middle" x="754.22" y="-187.28" font-family="Helvetica,sans-Serif" font-size="10.00" fill="#ffffff">jaxent.</text>
<text text-anchor="middle" x="754.22" y="-176.28" font-family="Helvetica,sans-Serif" font-size="10.00" fill="#ffffff">forwardmodels.</text>
<text text-anchor="middle" x="754.22" y="-165.28" font-family="Helvetica,sans-Serif" font-size="10.00" fill="#ffffff">functions</text>
</g>
<!-- jaxent_forwardmodels_functions&#45;&gt;jaxent_datatypes -->
<g id="edge10" class="edge">
<title>jaxent_forwardmodels_functions&#45;&gt;jaxent_datatypes</title><style>.edge>path:hover{stroke-width:8}</style>
<path fill="none" stroke="black" d="M712.35,-156.34C683,-141.98 641.95,-125.37 603.26,-121.78"/>
</g>
<!-- jaxent_forwardmodels_models -->
<g id="node8" class="node">
<title>jaxent_forwardmodels_models</title><style>.edge>path:hover{stroke-width:8}</style>
<ellipse fill="#813737" stroke="black" cx="929.52" cy="-178.78" rx="65.52" ry="28.98"/>
<text text-anchor="middle" x="929.52" y="-187.28" font-family="Helvetica,sans-Serif" font-size="10.00" fill="#ffffff">jaxent.</text>
<text text-anchor="middle" x="929.52" y="-176.28" font-family="Helvetica,sans-Serif" font-size="10.00" fill="#ffffff">forwardmodels.</text>
<text text-anchor="middle" x="929.52" y="-165.28" font-family="Helvetica,sans-Serif" font-size="10.00" fill="#ffffff">models</text>
</g>
<!-- jaxent_forwardmodels_models&#45;&gt;jaxent_config -->
<g id="edge2" class="edge">
<title>jaxent_forwardmodels_models&#45;&gt;jaxent_config</title><style>.edge>path:hover{stroke-width:8}</style>
<path fill="none" stroke="black" d="M601.26,-235.78C570.41,-238.59 537.65,-251.39 513.72,-262.78"/>
<polygon fill="#813737" stroke="black" points="512.12,-259.66 504.68,-267.21 515.2,-265.95 512.12,-259.66"/>
</g>
<!-- jaxent_forwardmodels_models&#45;&gt;jaxent_config_base -->
<g id="edge6" class="edge">
<title>jaxent_forwardmodels_models&#45;&gt;jaxent_config_base</title><style>.edge>path:hover{stroke-width:8}</style>
<path fill="none" stroke="black" d="M911.7,-207.03C898.26,-229.91 879.2,-263.09 863.76,-292.78 846.52,-325.94 859.35,-348.79 827.76,-368.78 756.88,-413.64 499.97,-361.43 397.08,-338"/>
<polygon fill="#813737" stroke="black" points="397.85,-334.59 387.32,-335.76 396.29,-341.41 397.85,-334.59"/>
</g>
<!-- jaxent_forwardmodels_models&#45;&gt;jaxent_datatypes -->
<g id="edge11" class="edge">
<title>jaxent_forwardmodels_models&#45;&gt;jaxent_datatypes</title><style>.edge>path:hover{stroke-width:8}</style>
<path fill="none" stroke="black" d="M885.27,-157.15C850.95,-141.83 801.27,-123.68 755.22,-121.78"/>
</g>
<!-- jaxent_forwardmodels_models&#45;&gt;jaxent_forwardmodels_base -->
<g id="edge21" class="edge">
<title>jaxent_forwardmodels_models&#45;&gt;jaxent_forwardmodels_base</title><style>.edge>path:hover{stroke-width:8}</style>
<path fill="none" stroke="black" d="M882.44,-199.22C865.55,-205.88 846.09,-212.63 827.76,-216.78 730.1,-238.88 702.98,-226.67 603.26,-235.78"/>
<path fill="none" stroke="black" d="M601.26,-235.78C525.66,-245.44 506.09,-242.77 430.82,-254.78 396.39,-260.27 388.81,-268.41 354.03,-270.78"/>
</g>
<!-- jaxent_forwardmodels_models&#45;&gt;jaxent_forwardmodels_functions -->
<g id="edge26" class="edge">
<title>jaxent_forwardmodels_models&#45;&gt;jaxent_forwardmodels_functions</title><style>.edge>path:hover{stroke-width:8}</style>
<path fill="none" stroke="black" d="M863.5,-178.78C852.62,-178.78 841.25,-178.78 830.14,-178.78"/>
<polygon fill="#813737" stroke="black" points="830.04,-175.28 820.03,-178.78 830.03,-182.28 830.04,-175.28"/>
</g>
<!-- jaxent_forwardmodels_netHDX_functions -->
<g id="node9" class="node">
<title>jaxent_forwardmodels_netHDX_functions</title><style>.edge>path:hover{stroke-width:8}</style>
<ellipse fill="#a13535" stroke="black" cx="754.22" cy="-330.78" rx="73.58" ry="28.98"/>
<text text-anchor="middle" x="754.22" y="-339.28" font-family="Helvetica,sans-Serif" font-size="10.00" fill="#ffffff">jaxent.</text>
<text text-anchor="middle" x="754.22" y="-328.28" font-family="Helvetica,sans-Serif" font-size="10.00" fill="#ffffff">forwardmodels.</text>
<text text-anchor="middle" x="754.22" y="-317.28" font-family="Helvetica,sans-Serif" font-size="10.00" fill="#ffffff">netHDX_functions</text>
</g>
<!-- jaxent_forwardmodels_models&#45;&gt;jaxent_forwardmodels_netHDX_functions -->
<g id="edge27" class="edge">
<title>jaxent_forwardmodels_models&#45;&gt;jaxent_forwardmodels_netHDX_functions</title><style>.edge>path:hover{stroke-width:8}</style>
<path fill="none" stroke="black" d="M899.13,-204.56C869.93,-230.17 825.02,-269.55 793.15,-297.51"/>
<polygon fill="#813737" stroke="black" points="790.56,-295.13 785.35,-304.35 795.17,-300.39 790.56,-295.13"/>
</g>
<!-- jaxent_forwardmodels_netHDX_functions&#45;&gt;jaxent_config -->
<g id="edge3" class="edge">
<title>jaxent_forwardmodels_netHDX_functions&#45;&gt;jaxent_config</title><style>.edge>path:hover{stroke-width:8}</style>
<path fill="none" stroke="black" d="M680.62,-331.69C656.01,-331.37 628.39,-330.32 603.26,-327.78"/>
<path fill="none" stroke="black" d="M601.26,-327.78C570.64,-324.68 538.11,-312.04 514.21,-300.8"/>
<polygon fill="#a13535" stroke="black" points="515.69,-297.63 505.17,-296.42 512.64,-303.93 515.69,-297.63"/>
</g>
<!-- jaxent_forwardmodels_netHDX_functions&#45;&gt;jaxent_config_base -->
<g id="edge7" class="edge">
<title>jaxent_forwardmodels_netHDX_functions&#45;&gt;jaxent_config_base</title><style>.edge>path:hover{stroke-width:8}</style>
<path fill="none" stroke="black" d="M476.33,-327.78C450.71,-324.88 421.89,-324.73 398.66,-325.37"/>
<polygon fill="#a13535" stroke="black" points="398.29,-321.88 388.41,-325.72 398.52,-328.88 398.29,-321.88"/>
</g>
<!-- jaxent_forwardmodels_netHDX_functions&#45;&gt;jaxent_forwardmodels_base -->
<g id="edge22" class="edge">
<title>jaxent_forwardmodels_netHDX_functions&#45;&gt;jaxent_forwardmodels_base</title><style>.edge>path:hover{stroke-width:8}</style>
<path fill="none" stroke="black" d="M601.26,-327.78C546.9,-322.27 532.62,-333.92 478.33,-327.78"/>
<path fill="none" stroke="black" d="M476.33,-327.78C436.61,-323.28 430.62,-307.55 394.82,-289.78 376.91,-280.88 373.98,-269.42 354.03,-270.78"/>
</g>
<!-- jaxent_lossfn -->
<g id="node10" class="node">
<title>jaxent_lossfn</title><style>.edge>path:hover{stroke-width:8}</style>
<ellipse fill="#c24747" stroke="black" cx="929.52" cy="-319.78" rx="46.51" ry="18"/>
<text text-anchor="middle" x="929.52" y="-317.28" font-family="Helvetica,sans-Serif" font-size="10.00" fill="#ffffff">jaxent.lossfn</text>
</g>
<!-- jaxent_lossfn_base -->
<g id="node11" class="node">
<title>jaxent_lossfn_base</title><style>.edge>path:hover{stroke-width:8}</style>
<ellipse fill="#a83838" stroke="black" cx="754.22" cy="-64.78" rx="35.21" ry="28.98"/>
<text text-anchor="middle" x="754.22" y="-73.28" font-family="Helvetica,sans-Serif" font-size="10.00" fill="#ffffff">jaxent.</text>
<text text-anchor="middle" x="754.22" y="-62.28" font-family="Helvetica,sans-Serif" font-size="10.00" fill="#ffffff">lossfn.</text>
<text text-anchor="middle" x="754.22" y="-51.28" font-family="Helvetica,sans-Serif" font-size="10.00" fill="#ffffff">base</text>
</g>
<!-- jaxent_lossfn_base&#45;&gt;jaxent_datatypes -->
<g id="edge12" class="edge">
<title>jaxent_lossfn_base&#45;&gt;jaxent_datatypes</title><style>.edge>path:hover{stroke-width:8}</style>
<path fill="none" stroke="black" d="M601.26,-64.78C569.13,-68.4 536.06,-84.56 512.33,-98.75"/>
<polygon fill="#a83838" stroke="black" points="510.39,-95.84 503.71,-104.07 514.06,-101.8 510.39,-95.84"/>
</g>
<!-- jaxent_lossfn_base&#45;&gt;jaxent_forwardmodels -->
<g id="edge16" class="edge">
<title>jaxent_lossfn_base&#45;&gt;jaxent_forwardmodels</title><style>.edge>path:hover{stroke-width:8}</style>
<path fill="none" stroke="black" d="M718.85,-62.6C688.38,-61.18 642.71,-60.33 603.26,-64.78"/>
<path fill="none" stroke="black" d="M601.26,-64.78C492.07,-77.07 463.53,-73.91 354.03,-64.78"/>
<path fill="none" stroke="black" d="M352.03,-64.78C300.17,-58.77 292.53,-34.37 240.88,-26.78"/>
</g>
<!-- jaxent_lossfn_base&#45;&gt;jaxent_forwardmodels_base -->
<g id="edge23" class="edge">
<title>jaxent_lossfn_base&#45;&gt;jaxent_forwardmodels_base</title><style>.edge>path:hover{stroke-width:8}</style>
<path fill="none" stroke="black" d="M352.03,-64.78C276.14,-55.99 189.14,-71.25 131.37,-84.98"/>
<polygon fill="#a83838" stroke="black" points="130.54,-81.58 121.65,-87.34 132.19,-88.38 130.54,-81.58"/>
</g>
<!-- jaxent_optimise -->
<g id="node12" class="node">
<title>jaxent_optimise</title><style>.edge>path:hover{stroke-width:8}</style>
<ellipse fill="#813737" stroke="black" cx="1073" cy="-296.78" rx="41.94" ry="21.43"/>
<text text-anchor="middle" x="1073" y="-299.78" font-family="Helvetica,sans-Serif" font-size="10.00" fill="#ffffff">jaxent.</text>
<text text-anchor="middle" x="1073" y="-288.78" font-family="Helvetica,sans-Serif" font-size="10.00" fill="#ffffff">optimise</text>
</g>
<!-- jaxent_optimise&#45;&gt;jaxent_config -->
<g id="edge4" class="edge">
<title>jaxent_optimise&#45;&gt;jaxent_config</title><style>.edge>path:hover{stroke-width:8}</style>
<path fill="none" stroke="black" d="M1031.4,-294.43C1019.74,-293.81 1007.01,-293.21 995.28,-292.78 827.54,-286.62 629.03,-283.59 534.2,-282.4"/>
<polygon fill="#813737" stroke="black" points="534.02,-278.9 523.98,-282.28 533.94,-285.9 534.02,-278.9"/>
</g>
<!-- jaxent_optimise&#45;&gt;jaxent_config_base -->
<g id="edge8" class="edge">
<title>jaxent_optimise&#45;&gt;jaxent_config_base</title><style>.edge>path:hover{stroke-width:8}</style>
<path fill="none" stroke="black" d="M1049.28,-314.38C1034.57,-325.05 1014.62,-338.21 995.28,-346.78 783.96,-440.44 704.3,-452.42 478.33,-403.78"/>
<path fill="none" stroke="black" d="M476.33,-403.78C442.16,-395.72 408.67,-373.63 385.4,-355.33"/>
<polygon fill="#813737" stroke="black" points="387.59,-352.6 377.61,-349.04 383.2,-358.05 387.59,-352.6"/>
</g>
<!-- jaxent_optimise&#45;&gt;jaxent_datatypes -->
<g id="edge13" class="edge">
<title>jaxent_optimise&#45;&gt;jaxent_datatypes</title><style>.edge>path:hover{stroke-width:8}</style>
<path fill="none" stroke="black" d="M928.52,-93.78C862.41,-52.35 833.18,-125 755.22,-121.78"/>
<path fill="none" stroke="black" d="M753.22,-121.78C686.63,-119.03 669.62,-127.95 603.26,-121.78"/>
<path fill="none" stroke="black" d="M601.26,-121.78C579.07,-119.71 554.53,-119.33 533.25,-119.61"/>
<polygon fill="#813737" stroke="black" points="533.02,-116.11 523.09,-119.79 533.15,-123.11 533.02,-116.11"/>
</g>
<!-- jaxent_optimise&#45;&gt;jaxent_forwardmodels -->
<g id="edge17" class="edge">
<title>jaxent_optimise&#45;&gt;jaxent_forwardmodels</title><style>.edge>path:hover{stroke-width:8}</style>
<path fill="none" stroke="black" d="M1065.35,-275.74C1054.52,-243.91 1030.67,-182.79 995.28,-140.78 972.37,-113.58 960.66,-112.66 930.52,-93.78"/>
<path fill="none" stroke="black" d="M928.52,-93.78C882.95,-65.22 879.24,-42.33 827.76,-26.78 578.07,48.66 498.94,-64.71 240.88,-26.78"/>
<path fill="none" stroke="black" d="M238.88,-26.78C208.01,-21.77 199.16,-33.03 168.52,-26.78"/>
<path fill="none" stroke="black" d="M167.52,-26.78C157.45,-24.72 146.69,-23.82 136.1,-23.65"/>
<polygon fill="#813737" stroke="black" points="136,-20.15 126.02,-23.7 136.04,-27.15 136,-20.15"/>
</g>
<!-- jaxent_optimise&#45;&gt;jaxent_forwardmodels_base -->
<g id="edge24" class="edge">
<title>jaxent_optimise&#45;&gt;jaxent_forwardmodels_base</title><style>.edge>path:hover{stroke-width:8}</style>
<path fill="none" stroke="black" d="M476.33,-403.78C403.04,-386.49 374.22,-407.03 311.23,-365.78 267.28,-336.99 290.3,-288.59 240.88,-270.78"/>
</g>
<!-- jaxent_optimise&#45;&gt;jaxent_lossfn -->
<g id="edge28" class="edge">
<title>jaxent_optimise&#45;&gt;jaxent_lossfn</title><style>.edge>path:hover{stroke-width:8}</style>
<path fill="none" stroke="black" d="M1032.97,-303.12C1017.46,-305.64 999.38,-308.58 982.77,-311.28"/>
<polygon fill="#813737" stroke="black" points="981.96,-307.87 972.65,-312.93 983.08,-314.78 981.96,-307.87"/>
</g>
<!-- jaxent_optimise&#45;&gt;jaxent_lossfn_base -->
<g id="edge29" class="edge">
<title>jaxent_optimise&#45;&gt;jaxent_lossfn_base</title><style>.edge>path:hover{stroke-width:8}</style>
<path fill="none" stroke="black" d="M928.52,-93.78C889.65,-69.42 836.66,-63.67 799.54,-63.07"/>
<polygon fill="#813737" stroke="black" points="799.53,-59.57 789.52,-63.03 799.5,-66.57 799.53,-59.57"/>
</g>
<!-- jaxent_utils_jax&#45;&gt;jaxent_forwardmodels -->
<g id="edge18" class="edge">
<title>jaxent_utils_jax&#45;&gt;jaxent_forwardmodels</title><style>.edge>path:hover{stroke-width:8}</style>
<path fill="none" stroke="black" d="M222.97,-161.11C210.28,-142.56 190.96,-118.16 168.52,-102.78"/>
<path fill="none" stroke="black" d="M167.52,-102.78C148.33,-89.62 150.07,-78.82 131.52,-64.78 125.94,-60.55 119.77,-56.57 113.51,-52.93"/>
<polygon fill="#b03a3a" stroke="black" points="114.78,-49.63 104.34,-47.84 111.38,-55.75 114.78,-49.63"/>
</g>
<!-- jaxent_utils_jax&#45;&gt;jaxent_forwardmodels_base -->
<g id="edge25" class="edge">
<title>jaxent_utils_jax&#45;&gt;jaxent_forwardmodels_base</title><style>.edge>path:hover{stroke-width:8}</style>
<path fill="none" stroke="black" d="M167.52,-102.78C158.41,-96.53 147.66,-93.37 136.63,-92.14"/>
<polygon fill="#b03a3a" stroke="black" points="136.66,-88.64 126.47,-91.53 136.24,-95.63 136.66,-88.64"/>
</g>
</g>
</svg>
